<svg width="52" height="52" viewBox="0 0 52 52" fill="none" xmlns="http://www.w3.org/2000/svg">
<path d="M26 13C27.43 13 28.6 14.17 28.6 15.6V26C28.6 27.43 27.43 28.6 26 28.6C24.57 28.6 23.4 27.43 23.4 26V15.6C23.4 14.17 24.57 13 26 13ZM25.974 0C11.622 0 0 11.648 0 26C0 40.352 11.622 52 25.974 52C40.352 52 52 40.352 52 26C52 11.648 40.352 0 25.974 0ZM26 46.8C14.508 46.8 5.2 37.492 5.2 26C5.2 14.508 14.508 5.2 26 5.2C37.492 5.2 46.8 14.508 46.8 26C46.8 37.492 37.492 46.8 26 46.8ZM28.6 39H23.4V33.8H28.6V39Z" fill="#FF6109"/>
</svg>
