<svg width="40" height="40" viewBox="0 0 40 40" fill="none" xmlns="http://www.w3.org/2000/svg">
<path d="M20 0C14.6974 0.00547996 9.61346 2.11437 5.86392 5.8639C2.11438 9.61344 0.00547997 14.6973 0 20C0 25.3437 2.07896 30.3652 5.85539 34.1416C7.70842 36.0051 9.91275 37.4824 12.3407 38.488C14.7687 39.4936 17.372 40.0075 20 39.9999C25.3026 39.9944 30.3865 37.8855 34.1361 34.136C37.8856 30.3865 39.9945 25.3026 40 20C39.9945 14.6973 37.8856 9.61344 34.1361 5.8639C30.3865 2.11437 25.3026 0.00547996 20 0ZM7.91069 34.0115C9.293 32.2131 11.0636 30.7501 13.0903 29.7316C15.117 28.7131 17.3476 28.1654 19.6156 28.1295C19.6865 28.1324 19.7545 28.1502 19.8255 28.1502H19.8935C19.9586 28.1502 20.0177 28.1324 20.0828 28.1295C22.3821 28.1686 24.6419 28.7343 26.6884 29.7832C28.735 30.8321 30.5138 32.3363 31.8882 34.18C28.5629 36.9864 24.3512 38.5244 20 38.5213C15.5575 38.5292 11.2626 36.9271 7.91069 34.0115ZM19.8344 26.6361C19.7605 26.6361 19.6895 26.6479 19.6156 26.6508C17.8894 26.5923 16.2542 25.8629 15.0575 24.6176C13.8607 23.3723 13.1969 21.7093 13.2072 19.9822C13.2102 19.108 13.3859 18.2429 13.724 17.4367C14.0622 16.6305 14.5562 15.899 15.1776 15.2841C15.7991 14.6692 16.5359 14.1831 17.3456 13.8536C18.1554 13.524 19.0223 13.3576 19.8965 13.3639C20.7707 13.367 21.6358 13.5426 22.442 13.8807C23.2482 14.2189 23.9797 14.7129 24.5946 15.3343C25.2095 15.9558 25.6956 16.6926 26.0252 17.5023C26.3547 18.3121 26.5211 19.179 26.5149 20.0532C26.5149 23.6374 23.6463 26.5503 20.0858 26.6538C20.003 26.6508 19.9202 26.6361 19.8344 26.6361ZM32.9854 33.1864C30.6987 30.1687 27.4461 28.0268 23.7705 27.1181C25.0495 26.4173 26.1164 25.3853 26.8594 24.1303C27.6024 22.8753 27.9941 21.4436 27.9935 19.9852C27.99 18.9169 27.7758 17.8597 27.3633 16.8743C26.9507 15.8889 26.3478 14.9945 25.5891 14.2424C24.8304 13.4903 23.9308 12.8952 22.9418 12.4913C21.9528 12.0873 20.8938 11.8824 19.8255 11.8882C18.7572 11.8917 17.7001 12.1058 16.7147 12.5184C15.7292 12.931 14.8349 13.5339 14.0827 14.2926C13.3306 15.0513 12.7356 15.9509 12.3316 16.9399C11.9276 17.9289 11.7227 18.9878 11.7285 20.0561C11.734 21.501 12.127 22.9178 12.8667 24.1589C13.6064 25.4001 14.6656 26.4199 15.9338 27.1122C12.3203 27.9997 9.1108 30.0779 6.82242 33.0119C3.3901 29.5548 1.46935 24.8774 1.48159 20.0059C1.48707 15.0954 3.44018 10.3876 6.91243 6.91537C10.3847 3.44313 15.0925 1.49002 20.003 1.48455C24.9134 1.49002 29.6212 3.44313 33.0935 6.91537C36.5657 10.3876 38.5188 15.0954 38.5243 20.0059C38.5231 22.4607 38.0326 24.8906 37.0816 27.1537C36.1305 29.4168 34.738 31.4676 32.9854 33.1864Z" fill="white"/>
</svg>
