<svg width="100" height="100" viewBox="0 0 100 100" fill="none" xmlns="http://www.w3.org/2000/svg">
<path d="M50 0C36.7434 0.0136999 24.0336 5.28593 14.6598 14.6598C5.28594 24.0336 0.0136999 36.7433 0 49.9999C0 63.3593 5.1974 75.9129 14.6385 85.354C19.271 90.0126 24.7819 93.7059 30.8518 96.2199C36.9217 98.7339 43.4301 100.019 50 99.9998C63.2566 99.9861 75.9664 94.7139 85.3402 85.34C94.7141 75.9662 99.9863 63.2565 100 49.9999C99.9863 36.7433 94.7141 24.0336 85.3402 14.6598C75.9664 5.28593 63.2566 0.0136999 50 0ZM19.7767 85.0287C23.2325 80.5327 27.6589 76.8752 32.7257 74.329C37.7926 71.7828 43.369 70.4136 49.0389 70.3237C49.2163 70.3311 49.3864 70.3754 49.5638 70.3754H49.7338C49.8965 70.3754 50.0444 70.3311 50.207 70.3237C55.9554 70.4215 61.6048 71.8358 66.7211 74.4581C71.8375 77.0803 76.2845 80.8406 79.7205 85.4501C71.4074 92.466 60.8781 96.311 50 96.3032C38.8937 96.3231 28.1565 92.3176 19.7767 85.0287ZM49.586 66.5901C49.4012 66.5901 49.2237 66.6197 49.0389 66.6271C44.7236 66.4809 40.6354 64.6573 37.6436 61.544C34.6518 58.4307 32.9923 54.2733 33.0179 49.9555C33.0256 47.7699 33.4648 45.6073 34.3101 43.5918C35.1555 41.5763 36.3904 39.7475 37.9441 38.2103C39.4978 36.6731 41.3397 35.4577 43.3641 34.6339C45.3885 33.8101 47.5557 33.3941 49.7412 33.4097C51.9269 33.4174 54.0894 33.8565 56.105 34.7019C58.1205 35.5472 59.9493 36.7822 61.4865 38.3358C63.0237 39.8895 64.2391 41.7314 65.0629 43.7558C65.8867 45.7803 66.3027 47.9474 66.2871 50.133C66.2871 59.0935 59.1158 66.3757 50.2144 66.6345C50.0074 66.6271 49.8004 66.5901 49.586 66.5901ZM82.4634 82.966C76.7467 75.4218 68.6151 70.0669 59.4263 67.7952C62.6238 66.0432 65.2911 63.4632 67.1486 60.3258C69.0061 57.1883 69.9853 53.609 69.9837 49.9629C69.975 47.2922 69.4396 44.6493 68.4081 42.1858C67.3767 39.7222 65.8694 37.4863 63.9727 35.606C62.0759 33.7257 59.8269 32.2381 57.3544 31.2281C54.882 30.2182 52.2346 29.7059 49.5638 29.7205C46.893 29.7292 44.2502 30.2646 41.7866 31.2961C39.3231 32.3275 37.0871 33.8348 35.2069 35.7315C33.3266 37.6283 31.8389 39.8773 30.829 42.3498C29.819 44.8222 29.3067 47.4696 29.3213 50.1404C29.3349 53.7524 30.3175 57.2946 32.1667 60.3974C34.0159 63.5002 36.6639 66.0499 39.8344 67.7804C30.8007 69.9994 22.777 75.1948 17.056 82.5298C8.47526 73.8871 3.67338 62.1935 3.70398 50.0147C3.71768 37.7385 8.60046 25.969 17.2811 17.2884C25.9617 8.60783 37.7312 3.72506 50.0074 3.71136C62.2836 3.72506 74.0531 8.60783 82.7337 17.2884C91.4143 25.969 96.2971 37.7385 96.3108 50.0147C96.3077 56.1517 95.0815 62.2265 92.7039 67.8842C90.3264 73.5419 86.845 78.669 82.4634 82.966Z" fill="#FF9E45"/>
</svg>
